<svg id="favicon" xmlns="http://www.w3.org/2000/svg" width="180" height="180" viewBox="0 0 180 180">
  <g id="favicon-2" data-name="favicon">
    <rect id="長方形_41" data-name="長方形 41" width="180" height="180" fill="#061944"/>
    <g id="グループ_75" data-name="グループ 75">
      <path id="パス_16" data-name="パス 16" d="M79.46,151.23H31.74V34.05H149.36v97.93" fill="none" stroke="#fff" stroke-miterlimit="10" stroke-width="5"/>
    </g>
  </g>
  <g id="グループ_76" data-name="グループ 76">
    <path id="パス_24" data-name="パス 24" d="M87.68,138.71h1.57l.06.9h.1a1.41,1.41,0,0,1,.72-.79,2.746,2.746,0,0,1,1.11-.22,2.277,2.277,0,0,1,1.29.32,1.872,1.872,0,0,1,.67,1.11,9.162,9.162,0,0,1,.21,2.23,9.694,9.694,0,0,1-.2,2.22,1.872,1.872,0,0,1-.66,1.13,2.062,2.062,0,0,1-1.27.34,2.789,2.789,0,0,1-1.11-.2,1.528,1.528,0,0,1-.71-.69h-.1v3.53H87.68Zm3.66,5.61a.737.737,0,0,0,.31-.55,13.915,13.915,0,0,0,0-2.98.73.73,0,0,0-.31-.56,1.72,1.72,0,0,0-.81-.13,1.423,1.423,0,0,0-.69.14.761.761,0,0,0-.34.45,5.659,5.659,0,0,0-.15,1.6,5.814,5.814,0,0,0,.13,1.51.844.844,0,0,0,.34.51,1.364,1.364,0,0,0,.71.15,1.775,1.775,0,0,0,.81-.13Z" fill="#fff"/>
    <path id="パス_25" data-name="パス 25" d="M95.1,138.71h1.57l.06,1.23h.11a1.778,1.778,0,0,1,.71-1.05,2.433,2.433,0,0,1,1.3-.29v1.69a2.623,2.623,0,0,0-1.24.24,1.4,1.4,0,0,0-.63.77,4.4,4.4,0,0,0-.19,1.47v3.08H95.11v-7.14Z" fill="#fff"/>
    <path id="パス_26" data-name="パス 26" d="M100.79,145.65a1.47,1.47,0,0,1-.77-1.04,16.121,16.121,0,0,1,0-4.67,1.472,1.472,0,0,1,.77-1.03,4.535,4.535,0,0,1,1.97-.31,4.484,4.484,0,0,1,1.96.31,1.47,1.47,0,0,1,.77,1.04,11.651,11.651,0,0,1,.17,2.34,11.467,11.467,0,0,1-.17,2.33,1.491,1.491,0,0,1-.77,1.04,4.457,4.457,0,0,1-1.96.32,4.508,4.508,0,0,1-1.97-.32Zm2.83-1.24a.682.682,0,0,0,.29-.56c.03-.28.06-.8.06-1.57a13.156,13.156,0,0,0-.06-1.57.7.7,0,0,0-.29-.55,1.851,1.851,0,0,0-.86-.14,1.931,1.931,0,0,0-.87.14.677.677,0,0,0-.29.55,20.572,20.572,0,0,0,0,3.14.738.738,0,0,0,.29.56,1.93,1.93,0,0,0,.87.14,1.8,1.8,0,0,0,.85-.14Z" fill="#fff"/>
    <path id="パス_27" data-name="パス 27" d="M108,145.64a1.872,1.872,0,0,1-.67-1.11,9.162,9.162,0,0,1-.21-2.23,9.694,9.694,0,0,1,.2-2.22,1.921,1.921,0,0,1,.66-1.13,2.151,2.151,0,0,1,1.27-.34,2.806,2.806,0,0,1,1.12.2,1.462,1.462,0,0,1,.7.69h.1v-4.05h1.68v10.4h-1.57l-.06-.88h-.1a1.752,1.752,0,0,1-1.83.99,2.277,2.277,0,0,1-1.29-.32Zm2.67-1.3a.73.73,0,0,0,.34-.42,2.517,2.517,0,0,0,.12-.64c.02-.26.04-.59.04-1,0-.38,0-.69-.02-.92a2.246,2.246,0,0,0-.1-.58.87.87,0,0,0-.34-.52,1.324,1.324,0,0,0-.7-.15,1.775,1.775,0,0,0-.81.13.781.781,0,0,0-.31.56,13.822,13.822,0,0,0,0,2.97.73.73,0,0,0,.31.56,1.72,1.72,0,0,0,.81.13,1.374,1.374,0,0,0,.67-.13Z" fill="#fff"/>
    <path id="パス_28" data-name="パス 28" d="M118.74,144.96h-.1a1.449,1.449,0,0,1-.7.76,2.7,2.7,0,0,1-1.22.25,2.241,2.241,0,0,1-1.25-.29,1.443,1.443,0,0,1-.57-.85,6.307,6.307,0,0,1-.15-1.55v-4.56h1.68v3.85a9.368,9.368,0,0,0,.06,1.3.633.633,0,0,0,.27.48,1.755,1.755,0,0,0,.73.11,1.282,1.282,0,0,0,.78-.19.925.925,0,0,0,.32-.6,7.432,7.432,0,0,0,.08-1.25v-3.7h1.68v7.14h-1.57l-.06-.9Z" fill="#fff"/>
    <path id="パス_29" data-name="パス 29" d="M125.68,145.91a8.075,8.075,0,0,1-.95.06,3.217,3.217,0,0,1-1.78-.39,1.79,1.79,0,0,1-.74-1.14,10.6,10.6,0,0,1-.17-2.15,9.079,9.079,0,0,1,.19-2.14,1.914,1.914,0,0,1,.76-1.16,3.052,3.052,0,0,1,1.71-.38,8.018,8.018,0,0,1,.97.06,5.005,5.005,0,0,1,.8.15v1.32a6.814,6.814,0,0,0-1.33-.11,2.055,2.055,0,0,0-.95.16.822.822,0,0,0-.38.62,8.588,8.588,0,0,0-.09,1.49,7.6,7.6,0,0,0,.1,1.5.837.837,0,0,0,.39.61,2.171,2.171,0,0,0,.94.15,8.484,8.484,0,0,0,1.37-.1v1.3a4.357,4.357,0,0,1-.85.15Z" fill="#fff"/>
    <path id="パス_30" data-name="パス 30" d="M133.47,142.83h-3.91a5.117,5.117,0,0,0,.09,1.17.648.648,0,0,0,.43.45,4.117,4.117,0,0,0,1.2.12c.61,0,1.26-.04,1.96-.11v1.3a5.957,5.957,0,0,1-1.06.15c-.44.03-.86.06-1.27.06a4.278,4.278,0,0,1-2.02-.36,1.709,1.709,0,0,1-.83-1.09,9.387,9.387,0,0,1-.19-2.22,9.158,9.158,0,0,1,.19-2.19,1.782,1.782,0,0,1,.8-1.13,3.792,3.792,0,0,1,1.92-.38,3.513,3.513,0,0,1,1.84.36,1.59,1.59,0,0,1,.71,1.08,13.325,13.325,0,0,1,.14,2.25v.53Zm-3.5-2.72a.673.673,0,0,0-.32.46,6.2,6.2,0,0,0-.09,1.11h2.31a4.963,4.963,0,0,0-.09-1.12.658.658,0,0,0-.32-.46,1.777,1.777,0,0,0-.71-.11,1.659,1.659,0,0,0-.78.13Z" fill="#fff"/>
    <path id="パス_31" data-name="パス 31" d="M140.8,145.75a1.389,1.389,0,0,1-.72-.78h-.1l-.06.88h-1.57v-10.4h1.68v4.05h.1a1.4,1.4,0,0,1,.71-.69,2.624,2.624,0,0,1,1.11-.2,2.082,2.082,0,0,1,1.27.34,1.972,1.972,0,0,1,.66,1.13,12.178,12.178,0,0,1-.01,4.45,1.9,1.9,0,0,1-.67,1.12,2.2,2.2,0,0,1-1.29.33,2.588,2.588,0,0,1-1.11-.22Zm1.22-1.41a.781.781,0,0,0,.31-.56,13.822,13.822,0,0,0,0-2.97.73.73,0,0,0-.31-.56,1.72,1.72,0,0,0-.81-.13,1.534,1.534,0,0,0-.63.1.684.684,0,0,0-.34.35,1.9,1.9,0,0,0-.17.64,10.47,10.47,0,0,0-.04,1.08,9.926,9.926,0,0,0,.04,1.06,2.163,2.163,0,0,0,.15.62.666.666,0,0,0,.34.39,1.389,1.389,0,0,0,.64.11,1.775,1.775,0,0,0,.81-.13Z" fill="#fff"/>
    <path id="パス_32" data-name="パス 32" d="M146.19,148.56v-1.3c.21,0,.35,0,.45.01h1.34a3.192,3.192,0,0,0,1.18-.13.7.7,0,0,0,.44-.5,5.713,5.713,0,0,0,.09-1.22v-.48h-.1a1.492,1.492,0,0,1-.67.71,2.5,2.5,0,0,1-1.18.23,2.183,2.183,0,0,1-1.27-.3,1.45,1.45,0,0,1-.56-.9,7.869,7.869,0,0,1-.14-1.66v-4.31h1.68v3.78a9.543,9.543,0,0,0,.06,1.31.6.6,0,0,0,.27.48,1.6,1.6,0,0,0,.73.11,1.282,1.282,0,0,0,.78-.19.971.971,0,0,0,.32-.6,7.517,7.517,0,0,0,.08-1.25v-3.64h1.68V145a9.309,9.309,0,0,1-.19,2.2,1.734,1.734,0,0,1-.83,1.12,4.1,4.1,0,0,1-2,.37,14.6,14.6,0,0,1-2.17-.14Z" fill="#fff"/>
    <path id="パス_33" data-name="パス 33" d="M99.85,161.14v-9.63h1.78v8.04h3.4v1.6H99.85Z" fill="#fff"/>
    <path id="パス_34" data-name="パス 34" d="M106.35,152.34v-1.6h1.72v1.6Zm.01,8.81v-7.14h1.69v7.14Z" fill="#fff"/>
    <path id="パス_35" data-name="パス 35" d="M110.52,155.42h-1.15v-1.41h1.15v-.64a4.254,4.254,0,0,1,.27-1.78,1.255,1.255,0,0,1,.88-.68,9.658,9.658,0,0,1,2.04-.15v1.26a5.525,5.525,0,0,0-.99.06.543.543,0,0,0-.4.27,1.637,1.637,0,0,0-.1.69v.97h1.5v1.41h-1.5v5.73h-1.69v-5.73Z" fill="#fff"/>
    <path id="パス_36" data-name="パス 36" d="M120.36,158.12h-3.91a5.117,5.117,0,0,0,.09,1.17.648.648,0,0,0,.43.45,4.117,4.117,0,0,0,1.2.12c.61,0,1.26-.04,1.96-.11v1.3a5.957,5.957,0,0,1-1.06.15c-.44.03-.86.06-1.27.06a4.278,4.278,0,0,1-2.02-.36,1.709,1.709,0,0,1-.83-1.09,9.387,9.387,0,0,1-.19-2.22,9.158,9.158,0,0,1,.19-2.19,1.782,1.782,0,0,1,.8-1.13,3.792,3.792,0,0,1,1.92-.38,3.513,3.513,0,0,1,1.84.36,1.59,1.59,0,0,1,.71,1.08,13.325,13.325,0,0,1,.14,2.25v.53Zm-3.5-2.72a.673.673,0,0,0-.32.46,6.2,6.2,0,0,0-.09,1.11h2.31a4.963,4.963,0,0,0-.09-1.12.658.658,0,0,0-.32-.46,1.777,1.777,0,0,0-.71-.11,1.659,1.659,0,0,0-.78.13Z" fill="#fff"/>
    <path id="パス_37" data-name="パス 37" d="M129.49,157.29a9.2,9.2,0,0,0-.06-1.29.646.646,0,0,0-.25-.48,1.5,1.5,0,0,0-.67-.11,1.057,1.057,0,0,0-.69.18,1,1,0,0,0-.29.59,7.881,7.881,0,0,0-.07,1.27v3.7h-1.68V157.3a9.2,9.2,0,0,0-.06-1.29.646.646,0,0,0-.25-.48,1.5,1.5,0,0,0-.67-.11,1.046,1.046,0,0,0-.7.19.949.949,0,0,0-.29.6,9.04,9.04,0,0,0-.07,1.25v3.7h-1.68v-7.14h1.57l.06.9h.1a1.52,1.52,0,0,1,.67-.76,2.461,2.461,0,0,1,1.16-.25,2.2,2.2,0,0,1,1.16.25,1.279,1.279,0,0,1,.55.76h.1a1.511,1.511,0,0,1,.69-.76,2.563,2.563,0,0,1,1.19-.25,2.077,2.077,0,0,1,1.18.29,1.388,1.388,0,0,1,.55.85,6.128,6.128,0,0,1,.15,1.53v4.59h-1.68v-3.85Z" fill="#fff"/>
    <path id="パス_38" data-name="パス 38" d="M138.45,158.12h-3.91a5.117,5.117,0,0,0,.09,1.17.648.648,0,0,0,.43.45,4.117,4.117,0,0,0,1.2.12c.61,0,1.26-.04,1.96-.11v1.3a5.957,5.957,0,0,1-1.06.15c-.44.03-.86.06-1.27.06a4.278,4.278,0,0,1-2.02-.36,1.709,1.709,0,0,1-.83-1.09,9.387,9.387,0,0,1-.19-2.22,9.158,9.158,0,0,1,.19-2.19,1.782,1.782,0,0,1,.8-1.13,3.792,3.792,0,0,1,1.92-.38,3.513,3.513,0,0,1,1.84.36,1.59,1.59,0,0,1,.71,1.08,13.325,13.325,0,0,1,.14,2.25v.53Zm-3.5-2.72a.673.673,0,0,0-.32.46,6.2,6.2,0,0,0-.09,1.11h2.31a4.963,4.963,0,0,0-.09-1.12.658.658,0,0,0-.32-.46,1.777,1.777,0,0,0-.71-.11,1.659,1.659,0,0,0-.78.13Z" fill="#fff"/>
    <path id="パス_39" data-name="パス 39" d="M144.07,157.29a9.27,9.27,0,0,0-.06-1.3.633.633,0,0,0-.27-.48,1.755,1.755,0,0,0-.73-.11,1.282,1.282,0,0,0-.78.19.971.971,0,0,0-.32.6,7.517,7.517,0,0,0-.08,1.25v3.7h-1.68V154h1.57l.06.9h.1a1.487,1.487,0,0,1,.7-.76,2.7,2.7,0,0,1,1.22-.25,2.241,2.241,0,0,1,1.25.29,1.443,1.443,0,0,1,.57.85,6.307,6.307,0,0,1,.15,1.55v4.56h-1.68v-3.85Z" fill="#fff"/>
    <path id="パス_40" data-name="パス 40" d="M148.21,161.14v-5.73h-1.16V154h1.16v-2.07h1.68V154h1.4v1.41h-1.4v5.73Z" fill="#fff"/>
  </g>
  <path id="パス_41" data-name="パス 41" d="M72.47,120V60h35.06v9.59H83.55V84.85h20.67v9.68H83.55V110.4h23.98v9.59H72.47Z" fill="#fff"/>
</svg>
