<svg id="logo" xmlns="http://www.w3.org/2000/svg" width="257.87" height="180" viewBox="0 0 257.87 180">
  <g id="LUSSOロゴ">
    <rect id="長方形_41" data-name="長方形 41" width="180" height="180" fill="#061944"/>
    <path id="パス_16" data-name="パス 16" d="M102.92,132.45H17.45V45.42H257.87V113.7h-5V50.42H22.45v77.03h80.47Z" fill="#fff"/>
  </g>
  <g id="グループ_77" data-name="グループ 77">
    <path id="パス_42" data-name="パス 42" d="M122.89,101.22a9.284,9.284,0,0,0,4.04-.87l-.39,4.38a11.758,11.758,0,0,1-4.51.91c-4.86,0-7.9-2.43-7.9-7.38V77.73l5.42-.74v5.9h7.42l-.39,4.04h-7.03V97.61c0,2.73,1.56,3.6,3.34,3.6Z" fill="#fff"/>
    <path id="パス_43" data-name="パス 43" d="M42.48,104.75V73.77h18.1v4.95H48.2V86.6H58.87v5H48.2v8.19H60.58v4.95H42.48Z" fill="#fff"/>
    <path id="パス_44" data-name="パス 44" d="M77.12,104.75l-4.37-7.7h-.31l-4.37,7.7H62.44l6.89-11.66-6.71-11.3h5.94l4.14,7.29h.27l4.14-7.29h5.63L76.12,93.05l6.89,11.71h-5.9Z" fill="#fff"/>
    <path id="パス_45" data-name="パス 45" d="M97.11,104.93a27.773,27.773,0,0,1-3.06.18q-3.87,0-5.72-1.26a5.774,5.774,0,0,1-2.39-3.67,33.56,33.56,0,0,1-.54-6.91,29.73,29.73,0,0,1,.61-6.89,6.034,6.034,0,0,1,2.43-3.71,9.869,9.869,0,0,1,5.52-1.24,28.036,28.036,0,0,1,3.13.18,15,15,0,0,1,2.59.49v4.23a23.5,23.5,0,0,0-4.28-.36,6.523,6.523,0,0,0-3.04.52,2.745,2.745,0,0,0-1.22,1.98,26.987,26.987,0,0,0-.29,4.79,25.157,25.157,0,0,0,.32,4.84,2.687,2.687,0,0,0,1.24,1.96,6.841,6.841,0,0,0,3.04.49,29.351,29.351,0,0,0,4.41-.31v4.19a17.553,17.553,0,0,1-2.75.5Z" fill="#fff"/>
    <path id="パス_46" data-name="パス 46" d="M104.27,76.43V71.3h5.54v5.13Zm.05,28.32V81.79h5.45v22.96Z" fill="#fff"/>
    <path id="パス_47" data-name="パス 47" d="M147.81,95.02H135.25a16.617,16.617,0,0,0,.29,3.76,2.014,2.014,0,0,0,1.4,1.44,13.138,13.138,0,0,0,3.85.38,59.616,59.616,0,0,0,6.3-.36v4.19a23.548,23.548,0,0,1-3.42.5c-1.41.12-2.78.18-4.1.18q-4.455,0-6.51-1.15a5.413,5.413,0,0,1-2.66-3.51,30.637,30.637,0,0,1-.61-7.14,29.937,29.937,0,0,1,.61-7.05,5.7,5.7,0,0,1,2.59-3.62q1.98-1.215,6.17-1.22c2.79,0,4.7.39,5.92,1.17a5.071,5.071,0,0,1,2.27,3.49,41.726,41.726,0,0,1,.45,7.23v1.71Zm-11.26-8.73a2.084,2.084,0,0,0-1.01,1.49,19.088,19.088,0,0,0-.29,3.56h7.43a16.114,16.114,0,0,0-.29-3.6,2.15,2.15,0,0,0-1.04-1.49,5.458,5.458,0,0,0-2.27-.36,5.579,5.579,0,0,0-2.52.41Z" fill="#fff"/>
    <path id="パス_48" data-name="パス 48" d="M167.86,104.9a30.7,30.7,0,0,1-3.47.2q-5,0-7.32-1.35a6.872,6.872,0,0,1-3.11-4.59,45.154,45.154,0,0,1-.79-9.9,44.822,44.822,0,0,1,.79-9.88,6.875,6.875,0,0,1,3.13-4.59c1.56-.92,3.99-1.37,7.29-1.37a28.317,28.317,0,0,1,3.51.23,19.171,19.171,0,0,1,2.88.54v4.59a48.141,48.141,0,0,0-5.09-.41,11.69,11.69,0,0,0-4.68.65,3.548,3.548,0,0,0-1.69,2.75,48.249,48.249,0,0,0-.38,7.5,49.576,49.576,0,0,0,.38,7.5A3.523,3.523,0,0,0,161,99.52a11.51,11.51,0,0,0,4.68.65,32.791,32.791,0,0,0,5.22-.41v4.64a22.85,22.85,0,0,1-3.06.52Z" fill="#fff"/>
    <path id="パス_49" data-name="パス 49" d="M177.81,104.09a4.8,4.8,0,0,1-2.48-3.33,36.679,36.679,0,0,1-.54-7.5,37.2,37.2,0,0,1,.54-7.54,4.7,4.7,0,0,1,2.48-3.31q1.935-.99,6.35-.99c2.94,0,5.01.33,6.3.99a4.714,4.714,0,0,1,2.48,3.33,37.109,37.109,0,0,1,.54,7.52,36.813,36.813,0,0,1-.54,7.5,4.755,4.755,0,0,1-2.48,3.33q-1.935,1-6.3,1.01C181.25,105.1,179.1,104.76,177.81,104.09Zm9.09-3.98a2.294,2.294,0,0,0,.95-1.8,45.737,45.737,0,0,0,.18-5.04,45.925,45.925,0,0,0-.18-5.06,2.327,2.327,0,0,0-.92-1.78,5.888,5.888,0,0,0-2.77-.45,6.014,6.014,0,0,0-2.79.45,2.268,2.268,0,0,0-.95,1.78,45.674,45.674,0,0,0-.18,5.06,45.361,45.361,0,0,0,.18,5.04,2.266,2.266,0,0,0,.95,1.8,6.014,6.014,0,0,0,2.79.45,5.819,5.819,0,0,0,2.75-.45Z" fill="#fff"/>
    <path id="パス_50" data-name="パス 50" d="M200.46,104.07a6.044,6.044,0,0,1-2.16-3.58,29.473,29.473,0,0,1-.68-7.18,30.41,30.41,0,0,1,.65-7.14,6.324,6.324,0,0,1,2.12-3.65,6.618,6.618,0,0,1,4.08-1.1,8.812,8.812,0,0,1,3.6.65,4.722,4.722,0,0,1,2.25,2.23h.32V71.29h5.4v33.45H211l-.18-2.84h-.32q-1.3,3.195-5.9,3.2a7.082,7.082,0,0,1-4.14-1.04Zm8.58-4.19a2.432,2.432,0,0,0,1.1-1.35,8.949,8.949,0,0,0,.38-2.05c.07-.82.11-1.9.11-3.22,0-1.23-.02-2.21-.07-2.95a7.11,7.11,0,0,0-.34-1.87,2.733,2.733,0,0,0-1.08-1.67,4.167,4.167,0,0,0-2.25-.5,5.537,5.537,0,0,0-2.59.43,2.46,2.46,0,0,0-.99,1.8,30.155,30.155,0,0,0-.25,4.75,30.911,30.911,0,0,0,.25,4.8,2.42,2.42,0,0,0,.99,1.8,5.537,5.537,0,0,0,2.59.43,4.565,4.565,0,0,0,2.14-.41Z" fill="#fff"/>
    <path id="パス_51" data-name="パス 51" d="M238.95,95.02H226.39a16.617,16.617,0,0,0,.29,3.76,2.014,2.014,0,0,0,1.4,1.44,13.138,13.138,0,0,0,3.85.38,59.616,59.616,0,0,0,6.3-.36v4.19a23.548,23.548,0,0,1-3.42.5c-1.41.12-2.78.18-4.1.18q-4.455,0-6.51-1.15a5.413,5.413,0,0,1-2.66-3.51,30.637,30.637,0,0,1-.61-7.14,29.937,29.937,0,0,1,.61-7.05,5.7,5.7,0,0,1,2.59-3.62q1.98-1.215,6.17-1.22c2.79,0,4.7.39,5.92,1.17a5.071,5.071,0,0,1,2.27,3.49,41.726,41.726,0,0,1,.45,7.23v1.71Zm-11.26-8.73a2.084,2.084,0,0,0-1.01,1.49,19.088,19.088,0,0,0-.29,3.56h7.43a16.114,16.114,0,0,0-.29-3.6,2.15,2.15,0,0,0-1.04-1.49,5.458,5.458,0,0,0-2.27-.36,5.579,5.579,0,0,0-2.52.41Z" fill="#fff"/>
  </g>
  <g id="グループ_78" data-name="グループ 78">
    <path id="パス_52" data-name="パス 52" d="M116.98,125.31h1.57l.06.9h.1a1.41,1.41,0,0,1,.72-.79,2.746,2.746,0,0,1,1.11-.22,2.277,2.277,0,0,1,1.29.32,1.872,1.872,0,0,1,.67,1.11,9.162,9.162,0,0,1,.21,2.23,9.694,9.694,0,0,1-.2,2.22,1.872,1.872,0,0,1-.66,1.13,2.062,2.062,0,0,1-1.27.34,2.789,2.789,0,0,1-1.11-.2,1.528,1.528,0,0,1-.71-.69h-.1v3.53h-1.68v-9.88Zm3.66,5.61a.737.737,0,0,0,.31-.55,13.915,13.915,0,0,0,0-2.98.73.73,0,0,0-.31-.56,1.72,1.72,0,0,0-.81-.13,1.423,1.423,0,0,0-.69.14.76.76,0,0,0-.34.45,5.659,5.659,0,0,0-.15,1.6,5.814,5.814,0,0,0,.13,1.51.844.844,0,0,0,.34.51,1.364,1.364,0,0,0,.71.15,1.775,1.775,0,0,0,.81-.13Z" fill="#fff"/>
    <path id="パス_53" data-name="パス 53" d="M124.4,125.31h1.57l.06,1.23h.11a1.778,1.778,0,0,1,.71-1.05,2.433,2.433,0,0,1,1.3-.29v1.69a2.624,2.624,0,0,0-1.24.24,1.4,1.4,0,0,0-.63.77,4.4,4.4,0,0,0-.19,1.47v3.08h-1.68v-7.14Z" fill="#fff"/>
    <path id="パス_54" data-name="パス 54" d="M130.1,132.25a1.47,1.47,0,0,1-.77-1.04,16.121,16.121,0,0,1,0-4.67,1.472,1.472,0,0,1,.77-1.03,4.536,4.536,0,0,1,1.97-.31,4.484,4.484,0,0,1,1.96.31,1.47,1.47,0,0,1,.77,1.04,11.651,11.651,0,0,1,.17,2.34,11.467,11.467,0,0,1-.17,2.33,1.491,1.491,0,0,1-.77,1.04,4.457,4.457,0,0,1-1.96.32,4.508,4.508,0,0,1-1.97-.32Zm2.83-1.24a.682.682,0,0,0,.29-.56c.03-.28.06-.8.06-1.57a13.157,13.157,0,0,0-.06-1.57.7.7,0,0,0-.29-.55,1.851,1.851,0,0,0-.86-.14,1.93,1.93,0,0,0-.87.14.677.677,0,0,0-.29.55,20.572,20.572,0,0,0,0,3.14.738.738,0,0,0,.29.56,1.93,1.93,0,0,0,.87.14,1.8,1.8,0,0,0,.85-.14Z" fill="#fff"/>
    <path id="パス_55" data-name="パス 55" d="M137.31,132.24a1.872,1.872,0,0,1-.67-1.11,9.162,9.162,0,0,1-.21-2.23,9.694,9.694,0,0,1,.2-2.22,1.921,1.921,0,0,1,.66-1.13,2.151,2.151,0,0,1,1.27-.34,2.806,2.806,0,0,1,1.12.2,1.462,1.462,0,0,1,.7.69h.1v-4.05h1.68v10.4h-1.57l-.06-.88h-.1a1.752,1.752,0,0,1-1.83.99,2.277,2.277,0,0,1-1.29-.32Zm2.67-1.3a.73.73,0,0,0,.34-.42,2.517,2.517,0,0,0,.12-.64c.02-.26.04-.59.04-1,0-.38,0-.69-.02-.92a2.246,2.246,0,0,0-.1-.58.87.87,0,0,0-.34-.52,1.324,1.324,0,0,0-.7-.15,1.776,1.776,0,0,0-.81.13.781.781,0,0,0-.31.56,13.822,13.822,0,0,0,0,2.97.73.73,0,0,0,.31.56,1.72,1.72,0,0,0,.81.13,1.374,1.374,0,0,0,.67-.13Z" fill="#fff"/>
    <path id="パス_56" data-name="パス 56" d="M148.05,131.55h-.1a1.449,1.449,0,0,1-.7.76,2.7,2.7,0,0,1-1.22.25,2.241,2.241,0,0,1-1.25-.29,1.443,1.443,0,0,1-.57-.85,6.307,6.307,0,0,1-.15-1.55v-4.56h1.68v3.85a9.37,9.37,0,0,0,.06,1.3.633.633,0,0,0,.27.48,1.755,1.755,0,0,0,.73.11,1.282,1.282,0,0,0,.78-.19.925.925,0,0,0,.32-.6,7.432,7.432,0,0,0,.08-1.25v-3.7h1.68v7.14h-1.57l-.06-.9Z" fill="#fff"/>
    <path id="パス_57" data-name="パス 57" d="M154.99,132.51a8.075,8.075,0,0,1-.95.06,3.217,3.217,0,0,1-1.78-.39,1.79,1.79,0,0,1-.74-1.14,10.6,10.6,0,0,1-.17-2.15,9.079,9.079,0,0,1,.19-2.14,1.914,1.914,0,0,1,.76-1.16,3.052,3.052,0,0,1,1.71-.38,8.016,8.016,0,0,1,.97.06,5,5,0,0,1,.8.15v1.32a6.814,6.814,0,0,0-1.33-.11,2.055,2.055,0,0,0-.95.16.822.822,0,0,0-.38.62,8.588,8.588,0,0,0-.09,1.49,7.594,7.594,0,0,0,.1,1.5.837.837,0,0,0,.39.61,2.171,2.171,0,0,0,.94.15,8.484,8.484,0,0,0,1.37-.1v1.3a4.357,4.357,0,0,1-.85.15Z" fill="#fff"/>
    <path id="パス_58" data-name="パス 58" d="M162.78,129.43h-3.91a5.117,5.117,0,0,0,.09,1.17.648.648,0,0,0,.43.45,4.117,4.117,0,0,0,1.2.12c.61,0,1.26-.04,1.96-.11v1.3a5.957,5.957,0,0,1-1.06.15c-.44.03-.86.06-1.27.06a4.278,4.278,0,0,1-2.02-.36,1.709,1.709,0,0,1-.83-1.09,9.387,9.387,0,0,1-.19-2.22,9.158,9.158,0,0,1,.19-2.19,1.782,1.782,0,0,1,.8-1.13,3.792,3.792,0,0,1,1.92-.38,3.513,3.513,0,0,1,1.84.36,1.59,1.59,0,0,1,.71,1.08,13.325,13.325,0,0,1,.14,2.25v.53Zm-3.5-2.72a.673.673,0,0,0-.32.46,6.2,6.2,0,0,0-.09,1.11h2.31a4.963,4.963,0,0,0-.09-1.12.658.658,0,0,0-.32-.46,1.777,1.777,0,0,0-.71-.11,1.659,1.659,0,0,0-.78.13Z" fill="#fff"/>
    <path id="パス_59" data-name="パス 59" d="M170.1,132.34a1.389,1.389,0,0,1-.72-.78h-.1l-.06.88h-1.57v-10.4h1.68v4.05h.1a1.4,1.4,0,0,1,.71-.69,2.624,2.624,0,0,1,1.11-.2,2.082,2.082,0,0,1,1.27.34,1.972,1.972,0,0,1,.66,1.13,12.178,12.178,0,0,1-.01,4.45,1.9,1.9,0,0,1-.67,1.12,2.2,2.2,0,0,1-1.29.33,2.588,2.588,0,0,1-1.11-.22Zm1.22-1.41a.781.781,0,0,0,.31-.56,13.822,13.822,0,0,0,0-2.97.73.73,0,0,0-.31-.56,1.72,1.72,0,0,0-.81-.13,1.535,1.535,0,0,0-.63.1.684.684,0,0,0-.34.35,1.9,1.9,0,0,0-.17.64,10.47,10.47,0,0,0-.04,1.08,9.926,9.926,0,0,0,.04,1.06,2.163,2.163,0,0,0,.15.62.666.666,0,0,0,.34.39,1.389,1.389,0,0,0,.64.11,1.775,1.775,0,0,0,.81-.13Z" fill="#fff"/>
    <path id="パス_60" data-name="パス 60" d="M175.5,135.15v-1.3c.21,0,.35,0,.45.01h1.34a3.192,3.192,0,0,0,1.18-.13.7.7,0,0,0,.44-.5,5.713,5.713,0,0,0,.09-1.22v-.48h-.1a1.492,1.492,0,0,1-.67.71,2.5,2.5,0,0,1-1.18.23,2.183,2.183,0,0,1-1.27-.3,1.45,1.45,0,0,1-.56-.9,7.869,7.869,0,0,1-.14-1.66V125.3h1.68v3.78a9.543,9.543,0,0,0,.06,1.31.6.6,0,0,0,.27.48,1.6,1.6,0,0,0,.73.11,1.282,1.282,0,0,0,.78-.19.971.971,0,0,0,.32-.6,7.517,7.517,0,0,0,.08-1.25V125.3h1.68v6.29a9.309,9.309,0,0,1-.19,2.2,1.734,1.734,0,0,1-.83,1.12,4.1,4.1,0,0,1-2,.37,14.6,14.6,0,0,1-2.17-.14Z" fill="#fff"/>
    <path id="パス_61" data-name="パス 61" d="M185.92,132.45v-9.63h1.78v8.04h3.4v1.6h-5.18Z" fill="#fff"/>
    <path id="パス_62" data-name="パス 62" d="M192.41,123.64v-1.6h1.72v1.6Zm.01,8.81v-7.14h1.69v7.14Z" fill="#fff"/>
    <path id="パス_63" data-name="パス 63" d="M196.59,126.72h-1.15v-1.41h1.15v-.64a4.254,4.254,0,0,1,.27-1.78,1.255,1.255,0,0,1,.88-.68,9.659,9.659,0,0,1,2.04-.15v1.26a5.525,5.525,0,0,0-.99.06.543.543,0,0,0-.4.27,1.636,1.636,0,0,0-.1.69v.97h1.5v1.41h-1.5v5.73H196.6v-5.73Z" fill="#fff"/>
    <path id="パス_64" data-name="パス 64" d="M206.43,129.43h-3.91a5.117,5.117,0,0,0,.09,1.17.648.648,0,0,0,.43.45,4.117,4.117,0,0,0,1.2.12c.61,0,1.26-.04,1.96-.11v1.3a5.957,5.957,0,0,1-1.06.15c-.44.03-.86.06-1.27.06a4.278,4.278,0,0,1-2.02-.36,1.709,1.709,0,0,1-.83-1.09,9.387,9.387,0,0,1-.19-2.22,9.158,9.158,0,0,1,.19-2.19,1.782,1.782,0,0,1,.8-1.13,3.792,3.792,0,0,1,1.92-.38,3.513,3.513,0,0,1,1.84.36,1.59,1.59,0,0,1,.71,1.08,13.325,13.325,0,0,1,.14,2.25v.53Zm-3.5-2.72a.673.673,0,0,0-.32.46,6.2,6.2,0,0,0-.09,1.11h2.31a4.963,4.963,0,0,0-.09-1.12.658.658,0,0,0-.32-.46,1.777,1.777,0,0,0-.71-.11,1.659,1.659,0,0,0-.78.13Z" fill="#fff"/>
    <path id="パス_65" data-name="パス 65" d="M215.56,128.6a9.2,9.2,0,0,0-.06-1.29.646.646,0,0,0-.25-.48,1.5,1.5,0,0,0-.67-.11,1.057,1.057,0,0,0-.69.18,1,1,0,0,0-.29.59,7.883,7.883,0,0,0-.07,1.27v3.7h-1.68v-3.85a9.2,9.2,0,0,0-.06-1.29.646.646,0,0,0-.25-.48,1.5,1.5,0,0,0-.67-.11,1.046,1.046,0,0,0-.7.19.949.949,0,0,0-.29.6,9.041,9.041,0,0,0-.07,1.25v3.7h-1.68v-7.14h1.57l.06.9h.1a1.52,1.52,0,0,1,.67-.76,2.461,2.461,0,0,1,1.16-.25,2.2,2.2,0,0,1,1.16.25,1.279,1.279,0,0,1,.55.76h.1a1.511,1.511,0,0,1,.69-.76,2.563,2.563,0,0,1,1.19-.25,2.077,2.077,0,0,1,1.18.29,1.388,1.388,0,0,1,.55.85,6.128,6.128,0,0,1,.15,1.53v4.59h-1.68v-3.85Z" fill="#fff"/>
    <path id="パス_66" data-name="パス 66" d="M224.52,129.43h-3.91a5.117,5.117,0,0,0,.09,1.17.648.648,0,0,0,.43.45,4.117,4.117,0,0,0,1.2.12c.61,0,1.26-.04,1.96-.11v1.3a5.957,5.957,0,0,1-1.06.15c-.44.03-.86.06-1.27.06a4.278,4.278,0,0,1-2.02-.36,1.709,1.709,0,0,1-.83-1.09,9.387,9.387,0,0,1-.19-2.22,9.158,9.158,0,0,1,.19-2.19,1.782,1.782,0,0,1,.8-1.13,3.792,3.792,0,0,1,1.92-.38,3.513,3.513,0,0,1,1.84.36,1.59,1.59,0,0,1,.71,1.08,13.325,13.325,0,0,1,.14,2.25v.53Zm-3.5-2.72a.673.673,0,0,0-.32.46,6.2,6.2,0,0,0-.09,1.11h2.31a4.963,4.963,0,0,0-.09-1.12.658.658,0,0,0-.32-.46,1.777,1.777,0,0,0-.71-.11,1.659,1.659,0,0,0-.78.13Z" fill="#fff"/>
    <path id="パス_67" data-name="パス 67" d="M230.13,128.6a9.27,9.27,0,0,0-.06-1.3.633.633,0,0,0-.27-.48,1.755,1.755,0,0,0-.73-.11,1.282,1.282,0,0,0-.78.19.971.971,0,0,0-.32.6,7.517,7.517,0,0,0-.08,1.25v3.7h-1.68v-7.14h1.57l.06.9h.1a1.487,1.487,0,0,1,.7-.76,2.7,2.7,0,0,1,1.22-.25,2.241,2.241,0,0,1,1.25.29,1.443,1.443,0,0,1,.57.85,6.307,6.307,0,0,1,.15,1.55v4.56h-1.68V128.6Z" fill="#fff"/>
    <path id="パス_68" data-name="パス 68" d="M234.27,132.45v-5.73h-1.16v-1.41h1.16v-2.07h1.68v2.07h1.4v1.41h-1.4v5.73Z" fill="#fff"/>
  </g>
</svg>
