<svg width="5" height="10" viewBox="0 0 5 10" fill="none" xmlns="http://www.w3.org/2000/svg">
<path d="M3.49305 5.00155L0.184049 8.40454C0.125786 8.46403 0.0795426 8.53481 0.047986 8.61278C0.0164294 8.69076 0.000182088 8.77439 0.000182096 8.85885C0.000182103 8.94332 0.0164294 9.02695 0.047986 9.10492C0.0795426 9.18289 0.125786 9.25367 0.184049 9.31317C0.301946 9.43288 0.460916 9.5 0.626549 9.5C0.792181 9.5 0.95115 9.43288 1.06905 9.31317L4.81805 5.45844C4.93139 5.34138 4.99651 5.18385 4.99986 5.01864C5.00322 4.85343 4.94454 4.69325 4.83605 4.57142L1.07105 0.688912C1.01307 0.629115 0.944212 0.581656 0.868409 0.549242C0.792607 0.516829 0.711342 0.500097 0.629255 0.500001C0.547167 0.499906 0.465866 0.516447 0.389992 0.548685C0.314118 0.580922 0.245158 0.628221 0.187048 0.687883C0.128938 0.747545 0.0828163 0.818399 0.0513174 0.896402C0.0198185 0.974405 0.00355885 1.05803 0.00346588 1.1425C0.0033729 1.22697 0.019448 1.31063 0.0507758 1.38871C0.0821035 1.46678 0.128068 1.53774 0.186047 1.59754L3.49305 5.00155Z" fill="#001E63"/>
</svg>
